<svg width="696" height="590" viewBox="0 0 696 590" fill="none" xmlns="http://www.w3.org/2000/svg">
<path d="M478.654 104.017L181.642 104.948C174.099 104.971 169.297 113.02 172.859 119.67L177.163 127.704C178.909 130.963 182.311 132.993 186.009 132.981L495.634 132.017C498.986 132.006 502.109 130.318 503.953 127.52L585.036 4.49686C586.886 1.68958 590.024 0 593.386 0H685.631C693.34 0 698.15 8.35428 694.279 15.0209L430.721 468.979C426.85 475.646 431.66 484 439.369 484H629.566C637.289 484 642.097 492.382 638.198 499.049L587.896 585.049C586.102 588.115 582.817 590 579.264 590H302.121C298.364 590 294.924 587.895 293.216 584.549L138.432 281.549C135.033 274.895 139.866 267 147.338 267H242.938C246.664 267 250.081 269.071 251.804 272.374L324.55 411.805C328.205 418.81 338.158 419.009 342.09 412.155L441.713 238.5L122.101 238.009C118.355 238.004 114.926 235.905 113.217 232.571L1.46437 14.5616C-1.9467 7.90726 2.88561 0 10.3633 0H534.365C542.341 0 547.107 8.8815 542.697 15.5285L486.956 99.5453C485.109 102.329 481.994 104.006 478.654 104.017Z" fill="#F59B09"/>
</svg>
